<svg width="36" height="36" viewBox="0 0 36 36" fill="none" xmlns="http://www.w3.org/2000/svg">
<path d="M36 18C36 30.4264 30.4264 36 18 36C5.57359 36 0 30.4264 0 18C0 5.57359 5.57359 0 18 0C30.4264 0 36 5.57359 36 18Z" fill="#7895AC" fill-opacity="0.1"/>
<path d="M12 19.5001C12.8284 19.5001 13.5 18.8285 13.5 18.0001C13.5 17.1716 12.8284 16.5001 12 16.5001C11.1716 16.5001 10.5 17.1716 10.5 18.0001C10.5 18.8285 11.1716 19.5001 12 19.5001Z" fill="#7895AC"/>
<path d="M18 19.5001C18.8284 19.5001 19.5 18.8285 19.5 18.0001C19.5 17.1716 18.8284 16.5001 18 16.5001C17.1716 16.5001 16.5 17.1716 16.5 18.0001C16.5 18.8285 17.1716 19.5001 18 19.5001Z" fill="#7895AC"/>
<path d="M24 19.5001C24.8284 19.5001 25.5 18.8285 25.5 18.0001C25.5 17.1716 24.8284 16.5001 24 16.5001C23.1716 16.5001 22.5 17.1716 22.5 18.0001C22.5 18.8285 23.1716 19.5001 24 19.5001Z" fill="#7895AC"/>
</svg>
