<svg width="40" height="40" viewBox="0 0 40 40" fill="none" xmlns="http://www.w3.org/2000/svg">
<path d="M32.0825 9.41615C31.3844 8.69544 30.5555 8.12372 29.6432 7.73366C28.7309 7.34359 27.753 7.14282 26.7655 7.14282C25.778 7.14282 24.8001 7.34359 23.8878 7.73366C22.9755 8.12372 22.1466 8.69544 21.4484 9.41615L19.9996 10.9112L18.5507 9.41615C17.1406 7.96105 15.228 7.14358 13.2337 7.14358C11.2394 7.14358 9.3268 7.96105 7.91663 9.41615C6.50646 10.8713 5.71423 12.8448 5.71423 14.9026C5.71423 16.9605 6.50646 18.934 7.91663 20.3891L9.36549 21.8841L19.9996 32.8571L30.6337 21.8841L32.0825 20.3891C32.781 19.6687 33.3351 18.8134 33.7131 17.872C34.0911 16.9307 34.2857 15.9216 34.2857 14.9026C34.2857 13.8836 34.0911 12.8746 33.7131 11.9332C33.3351 10.9918 32.781 10.1365 32.0825 9.41615V9.41615Z" fill="white"/>
</svg>
