<svg width="58" height="56" viewBox="0 0 58 56" fill="none" xmlns="http://www.w3.org/2000/svg">
<path d="M18.9777 34.9596C19.222 34.8665 19.2685 34.82 19.2685 34.378C19.2685 33.9361 18.78 34.0408 17.9077 33.0754C16.5288 31.5219 15.7386 29.534 15.6746 27.4578C15.4304 24.4105 18.1519 21.1539 18.6288 20.2816C19.1057 19.4093 18.6288 18.3277 18.0007 18.3393C10.6385 18.5835 9.85925 24.7362 9.70805 26.2365C9.55685 27.7369 9.615 31.9589 12.3715 33.843C14.35 35.0457 16.7139 35.4452 18.9777 34.9596ZM40.8435 19.2232C40.9947 19.2232 41.0877 19.0255 41.0877 18.7347C40.5214 18.0154 39.7694 17.4644 38.9128 17.1413C38.8463 17.1773 38.7881 17.2266 38.7417 17.2862C38.6953 17.3458 38.6617 17.4144 38.6431 17.4876C38.6246 17.5608 38.6213 17.6371 38.6337 17.7116C38.6461 17.7862 38.6738 17.8573 38.715 17.9206C39.3832 18.4129 40.0912 18.8486 40.8318 19.2232H40.8435ZM39.2501 22.8636C39.4478 22.9567 43.3208 24.899 43.472 24.899C43.6232 24.899 43.6232 24.6082 43.6232 24.3175C42.2835 23.3465 40.8355 22.5347 39.3082 21.8983C39.0407 21.9332 39.0407 22.759 39.2384 22.852L39.2501 22.8636ZM39.2501 26.1551C39.4943 26.3994 43.7046 28.8186 43.9024 28.8651C44.1001 28.9116 43.9954 28.4813 43.9954 28.1905C42.6095 27.0775 41.1175 26.1036 39.5408 25.2828C39.378 25.2828 38.9942 25.9109 39.2384 26.1551H39.2501ZM39.3431 28.8651C39.3431 28.8651 38.9593 29.5397 39.0058 29.7839C40.4615 30.7835 41.9677 31.7075 43.5185 32.552C43.5185 32.552 43.8558 32.1682 43.8093 31.924C42.4242 30.7553 40.9238 29.7304 39.3315 28.8651H39.3431ZM43.03 36.6228C43.2278 36.7158 43.2743 36.2855 43.3673 36.0878C43.4604 35.89 38.1335 32.3543 38.1335 32.3543C38.1335 32.3543 37.5985 32.9824 37.5985 33.1801C37.5985 33.3778 42.8207 36.5181 43.0184 36.6228H43.03ZM41.1924 39.4839C41.3893 39.3652 41.5692 39.2204 41.7274 39.0536C40.2888 37.6616 38.7322 36.3968 37.0751 35.2736C36.7843 35.2736 36.4471 35.6109 36.4936 35.8551C36.5401 36.0994 41.1691 39.4839 41.1691 39.4839H41.1924ZM35.2142 37.6346C34.9561 37.7828 34.7647 38.0242 34.6792 38.3092C35.9366 39.3972 37.2655 40.3997 38.6569 41.3099C38.8538 41.1912 39.0337 41.0464 39.1919 40.8796C38.0025 39.6407 36.6668 38.551 35.2142 37.6346ZM56.0564 7.25522C56.0564 7.25522 58.0918 2.84718 55.2307 1.92836C52.3695 1.00953 50.6714 2.8937 50.7761 4.92908C50.8808 6.96445 53.5442 7.83676 53.5442 7.83676C53.5442 7.83676 54.2188 22.3751 54.2188 22.5729C53.3839 22.7009 52.537 22.7321 51.6949 22.6659C51.6949 22.6659 51.6949 21.4098 51.6019 20.3398C51.5088 19.2697 49.9154 18.9325 49.9154 18.9325C49.9154 18.9325 48.5546 11.326 46.2285 8.89515C43.9023 6.46433 39.913 0.951375 30.4107 0.36984C20.9084 -0.211696 16.4539 1.33519 9.96392 6.09215C3.47399 10.8491 2.45048 19.8397 2.45048 19.8397C2.02015 19.8397 0.752399 19.9327 0.415109 20.5142C0.0778181 21.0958 0.566308 28.4115 0.798922 29.0977C1.03154 29.7839 3.99737 30.505 3.99737 30.505C4.32343 31.6572 4.71169 32.791 5.16044 33.9012C5.9397 35.8435 7.24234 38.5535 7.24234 38.5535C7.24234 38.5535 4.62543 44.0315 4.9162 44.7526C5.20696 45.4737 8.64965 49.4049 13.6392 52.3126C18.6288 55.2203 27.7938 57.2557 35.7376 54.3015C43.6814 51.3473 50.5202 44.9969 50.5667 44.5665C50.6133 44.1362 47.6591 36.6228 47.6591 36.6228C48.2395 35.867 48.6376 34.9873 48.8221 34.0524C49.1532 32.7368 49.3173 31.3847 49.3106 30.0282C49.3106 30.0282 51.253 29.6443 51.6368 29.0163C51.897 27.8727 51.9794 26.6958 51.881 25.5271C51.881 25.5271 56.103 25.8644 56.5333 25.7713C56.9636 25.6783 57.6033 25.4805 57.6964 24.806C57.7894 24.1314 56.0564 7.25522 56.0564 7.25522ZM4.19509 28.7255C3.75945 28.8525 3.29129 28.8023 2.89245 28.5859C2.75288 28.3882 2.06667 21.9913 2.40396 21.7006C2.40396 21.7006 4.19509 21.5028 4.24161 21.8518C4.37194 24.1417 4.3564 26.4376 4.19509 28.7255ZM6.18394 30.6097C6.18394 30.2724 6.18394 22.317 6.18394 22.2239C9.26041 19.2513 12.7366 16.7224 16.512 14.7105C21.362 12.3844 27.6542 12.2913 32.0158 13.0124C36.3773 13.7335 40.2503 16.5947 42.9719 18.4905C45.6935 20.3863 45.9261 21.0609 45.9261 21.0609C45.9069 23.585 46.0195 26.1084 46.2634 28.6208C46.4958 29.049 46.7897 29.4409 47.1357 29.7839C46.7749 31.6118 46.1438 33.3758 45.2631 35.0177C44.1764 37.231 42.6625 39.2074 40.8086 40.8331C39.5982 41.6814 38.327 42.4395 37.0053 43.1011C37.0053 43.1011 33.7138 39.9026 33.5161 39.8561C33.3184 39.8096 32.5508 40.3911 32.6903 40.6819C32.8299 40.9727 36.3307 43.4965 36.04 43.6826C32.8664 44.979 29.4872 45.6997 26.0608 45.811C20.9749 45.7184 16.0852 43.8318 12.2552 40.4842C9.56497 37.6521 7.49694 34.2885 6.18394 30.6097ZM11.3247 47.7534C11.1851 47.7534 10.6036 47.6603 10.7432 47.4626C10.8828 47.2649 12.5808 43.9734 12.7786 43.7757C12.9763 43.5779 13.3601 43.9269 13.267 44.0664C13.174 44.206 11.4643 47.8115 11.3247 47.8115V47.7534ZM12.639 48.9164C12.4413 48.8234 12.104 48.7187 12.104 48.5791C12.104 48.4396 13.9416 44.7992 13.9416 44.7992L14.4301 45.0899C13.931 46.4297 13.3282 47.7285 12.6274 48.9746L12.639 48.9164ZM48.0545 44.0781C47.9054 44.2703 47.7244 44.4355 47.5195 44.5665C46.9148 43.3821 46.2188 42.2466 45.4376 41.1704C45.1934 41.1704 44.6583 41.9962 44.6583 41.9962C44.6583 41.9962 46.6007 44.8573 46.403 45.1481C45.9901 45.498 45.5325 45.7913 45.0422 46.0204C44.5804 45.0328 44.0275 44.0905 43.3906 43.2058C43.0998 43.1127 42.3206 43.6942 42.4252 43.9385C42.5299 44.1827 44.2164 46.7996 44.2164 46.7996C44.2164 46.7996 43.251 47.6719 43.0533 47.5789C42.8556 47.4859 41.646 45.055 41.4599 45.055C41.2738 45.055 40.6806 45.7296 40.6806 45.7296C40.6806 45.7296 42.4718 48.0558 42.2857 48.2535L41.4134 48.9281L39.7618 46.4624C39.7618 46.4624 39.0407 46.7531 39.0407 46.9508C39.0407 47.1486 40.7388 49.719 40.6457 49.8585C40.5527 49.9981 37.7846 52.1847 31.6319 52.9174C25.4793 53.6501 21.6063 53.0686 18.2101 51.9521C14.8139 50.8355 13.5578 49.7771 13.4648 49.6259C13.8458 48.199 14.417 46.8299 15.1629 45.5552C18.0055 47.0617 21.1583 47.8897 24.3744 47.9743C29.992 48.2186 31.9809 48.1255 36.9239 45.6482C39.7386 44.3733 42.2998 42.6002 44.4839 40.4144C45.0079 39.8827 45.5759 39.3964 46.182 38.9605C46.182 38.9605 48.1476 43.892 48.0545 44.0781ZM49.6595 27.6555C49.4735 27.7699 49.2649 27.8427 49.0481 27.8688C48.8312 27.8949 48.6113 27.8737 48.4034 27.8067C48.3104 27.6671 48.3104 20.491 48.4034 20.4444C48.4965 20.3979 49.6596 20.5956 49.7177 20.8864C49.843 23.1417 49.8236 25.4027 49.6595 27.6555ZM56.4054 24.1663C55.0181 24.4329 53.5979 24.4839 52.195 24.3175C51.9973 24.1779 52.195 23.6429 52.195 23.6429C52.195 23.6429 55.44 23.6429 55.44 23.3521C55.44 23.0614 54.8585 13.5591 55.1492 13.3265C55.44 13.0938 55.4865 13.4195 55.6377 13.7103C56.0819 17.179 56.3343 20.6697 56.3937 24.1663H56.4054Z" fill="white"/>
</svg>
