<svg width="550" height="60" viewBox="0 0 550 60" fill="none" xmlns="http://www.w3.org/2000/svg">
<path d="M43 32.5C43.8284 32.5 44.5 31.8284 44.5 31C44.5 30.1716 43.8284 29.5 43 29.5C42.1716 29.5 41.5 30.1716 41.5 31C41.5 31.8284 42.1716 32.5 43 32.5Z" fill="#354246"/>
<path d="M49 32.5C49.8284 32.5 50.5 31.8284 50.5 31C50.5 30.1716 49.8284 29.5 49 29.5C48.1716 29.5 47.5 30.1716 47.5 31C47.5 31.8284 48.1716 32.5 49 32.5Z" fill="#354246"/>
<path d="M55 32.5C55.8284 32.5 56.5 31.8284 56.5 31C56.5 30.1716 55.8284 29.5 55 29.5C54.1716 29.5 53.5 30.1716 53.5 31C53.5 31.8284 54.1716 32.5 55 32.5Z" fill="#354246"/>
<path d="M128.143 35.4287L132.429 31.143L128.143 26.8573" stroke="#354246" stroke-width="1.5" stroke-linecap="round" stroke-linejoin="round"/>
<path d="M159.429 26.8569L155.143 31.1426L159.429 35.4284" stroke="#354246" stroke-width="1.5" stroke-linecap="round" stroke-linejoin="round"/>
<g filter="url(#filter0_d_36_3730)">
<path d="M207 28.9998L211.286 33.2855L215.571 28.9998" stroke="#354246" stroke-width="1.5" stroke-linecap="round" stroke-linejoin="round"/>
</g>
<path d="M107.286 26.7142L98.7143 35.2857" stroke="#354246" stroke-width="1.5" stroke-linecap="round" stroke-linejoin="round"/>
<path d="M98.7143 26.7142L107.286 35.2857" stroke="#354246" stroke-width="1.5" stroke-linecap="round" stroke-linejoin="round"/>
<path d="M458.95 30.9497H449.05" stroke="#354246" stroke-width="1.5" stroke-linecap="round" stroke-linejoin="round"/>
<path d="M454 26V35.8995" stroke="#354246" stroke-width="1.5" stroke-linecap="round" stroke-linejoin="round"/>
<path d="M72.5714 24.5713H71.5714C70.4668 24.5713 69.5714 25.4667 69.5714 26.5713V27.5713C69.5714 28.6759 70.4668 29.5713 71.5714 29.5713H72.5714C73.676 29.5713 74.5714 28.6759 74.5714 27.5713V26.5713C74.5714 25.4667 73.676 24.5713 72.5714 24.5713Z" stroke="#354246" stroke-width="1.5" stroke-linecap="round" stroke-linejoin="round"/>
<path d="M80.4286 24.5713H79.4286C78.324 24.5713 77.4286 25.4667 77.4286 26.5713V27.5713C77.4286 28.6759 78.324 29.5713 79.4286 29.5713H80.4286C81.5332 29.5713 82.4286 28.6759 82.4286 27.5713V26.5713C82.4286 25.4667 81.5332 24.5713 80.4286 24.5713Z" stroke="#354246" stroke-width="1.5" stroke-linecap="round" stroke-linejoin="round"/>
<path d="M80.4286 32.4287H79.4286C78.324 32.4287 77.4286 33.3241 77.4286 34.4287V35.4287C77.4286 36.5333 78.324 37.4287 79.4286 37.4287H80.4286C81.5332 37.4287 82.4286 36.5333 82.4286 35.4287V34.4287C82.4286 33.3241 81.5332 32.4287 80.4286 32.4287Z" stroke="#354246" stroke-width="1.5" stroke-linecap="round" stroke-linejoin="round"/>
<path d="M72.5714 32.4287H71.5714C70.4668 32.4287 69.5714 33.3241 69.5714 34.4287V35.4287C69.5714 36.5333 70.4668 37.4287 71.5714 37.4287H72.5714C73.676 37.4287 74.5714 36.5333 74.5714 35.4287V34.4287C74.5714 33.3241 73.676 32.4287 72.5714 32.4287Z" stroke="#354246" stroke-width="1.5" stroke-linecap="round" stroke-linejoin="round"/>
<path d="M22 23.1431C21.4317 23.1431 20.8867 23.3688 20.4848 23.7707C20.0829 24.1726 19.8572 24.7176 19.8572 25.2859V31.0002C19.8572 31.5685 20.0829 32.1136 20.4848 32.5154C20.8867 32.9173 21.4317 33.1431 22 33.1431C22.5684 33.1431 23.1134 32.9173 23.5153 32.5154C23.9171 32.1136 24.1429 31.5685 24.1429 31.0002V25.2859C24.1429 24.7176 23.9171 24.1726 23.5153 23.7707C23.1134 23.3688 22.5684 23.1431 22 23.1431V23.1431Z" stroke="#354246" stroke-width="1.5" stroke-linecap="round" stroke-linejoin="round"/>
<path fill-rule="evenodd" clip-rule="evenodd" d="M17 28.8213C17.4142 28.8213 17.75 29.1571 17.75 29.5713V30.9999C17.75 32.127 18.1978 33.208 18.9948 34.0051C19.7918 34.8021 20.8728 35.2499 22 35.2499C23.1272 35.2499 24.2082 34.8021 25.0052 34.0051C25.8022 33.208 26.25 32.127 26.25 30.9999V29.5713C26.25 29.1571 26.5858 28.8213 27 28.8213C27.4142 28.8213 27.75 29.1571 27.75 29.5713V30.9999C27.75 32.5249 27.1442 33.9874 26.0659 35.0657C25.1659 35.9657 23.9982 36.5366 22.75 36.7008V38.1069H24.8571C25.2714 38.1069 25.6071 38.4427 25.6071 38.8569C25.6071 39.2711 25.2714 39.6069 24.8571 39.6069H22.0179C22.012 39.6071 22.006 39.6071 22 39.6071C21.994 39.6071 21.988 39.6071 21.9821 39.6069H19.1429C18.7286 39.6069 18.3929 39.2711 18.3929 38.8569C18.3929 38.4427 18.7286 38.1069 19.1429 38.1069H21.25V36.7008C20.0018 36.5366 18.8341 35.9657 17.9341 35.0657C16.8558 33.9874 16.25 32.5249 16.25 30.9999V29.5713C16.25 29.1571 16.5858 28.8213 17 28.8213Z" fill="#354246"/>
<g clip-path="url(#clip0_36_3730)">
<path d="M181.469 37.7055C181.768 38.2228 182.499 38.2656 182.857 37.7869L190.707 27.2902C191.146 26.7036 190.669 25.877 189.941 25.9636L176.926 27.5137C176.332 27.5844 176.004 28.2387 176.302 28.7568L177.802 31.3633C178.011 31.7258 178.456 31.8775 178.842 31.7181L182.382 30.2589C183.281 29.8881 183.978 31.0961 183.208 31.6896L180.174 34.0252C179.843 34.2803 179.752 34.7414 179.961 35.1032L181.469 37.7055Z" stroke="#354246" stroke-width="1.5" stroke-linejoin="round"/>
</g>
<circle cx="346" cy="31" r="7" stroke="#354246" stroke-width="1.26562"/>
<circle cx="343.375" cy="29.25" r="0.875" fill="#354246"/>
<circle cx="348.625" cy="29.25" r="0.875" fill="#354246"/>
<path d="M343.812 32.3125C344.056 32.7986 344.833 33.7708 346 33.7708C347.167 33.7708 347.944 32.7986 348.188 32.3125" stroke="#354246" stroke-width="1.26562" stroke-linecap="round"/>
<circle cx="373" cy="31" r="7" stroke="#354246" stroke-width="1.26562"/>
<circle cx="370.375" cy="29.25" r="0.875" fill="#354246"/>
<circle cx="375.625" cy="29.25" r="0.875" fill="#354246"/>
<path d="M370.812 33.7708C371.056 33.2846 371.833 32.3124 373 32.3124C374.167 32.3124 374.944 33.2846 375.188 33.7708" stroke="#354246" stroke-width="1.26562" stroke-linecap="round"/>
<path fill-rule="evenodd" clip-rule="evenodd" d="M427 38.25C431.004 38.25 434.25 35.0041 434.25 31C434.25 26.9959 431.004 23.75 427 23.75C422.996 23.75 419.75 26.9959 419.75 31C419.75 35.0041 422.996 38.25 427 38.25ZM424.375 30.125C424.858 30.125 425.25 29.7332 425.25 29.25C425.25 28.7668 424.858 28.375 424.375 28.375C423.892 28.375 423.5 28.7668 423.5 29.25C423.5 29.7332 423.892 30.125 424.375 30.125ZM430.5 29.25C430.5 29.7332 430.108 30.125 429.625 30.125C429.142 30.125 428.75 29.7332 428.75 29.25C428.75 28.7668 429.142 28.375 429.625 28.375C430.108 28.375 430.5 28.7668 430.5 29.25ZM425.379 34.0539C425.222 34.3665 424.842 34.4932 424.53 34.3369C424.217 34.1806 424.09 33.8005 424.247 33.4879C424.405 33.1714 424.714 32.7345 425.159 32.37C425.609 32.0012 426.232 31.6797 427 31.6797C427.768 31.6797 428.391 32.0012 428.841 32.37C429.286 32.7345 429.595 33.1714 429.754 33.4879C429.91 33.8005 429.783 34.1806 429.471 34.3369C429.158 34.4932 428.778 34.3665 428.622 34.0539C428.537 33.8842 428.336 33.5919 428.039 33.3488C427.748 33.11 427.399 32.9453 427 32.9453C426.601 32.9453 426.252 33.11 425.961 33.3488C425.664 33.5919 425.463 33.8842 425.379 34.0539Z" fill="#354246"/>
<path fill-rule="evenodd" clip-rule="evenodd" d="M400 38.25C404.004 38.25 407.25 35.0041 407.25 31C407.25 26.9959 404.004 23.75 400 23.75C395.996 23.75 392.75 26.9959 392.75 31C392.75 35.0041 395.996 38.25 400 38.25ZM397.281 30.0938C397.782 30.0938 398.188 29.688 398.188 29.1875C398.188 28.687 397.782 28.2812 397.281 28.2812C396.781 28.2812 396.375 28.687 396.375 29.1875C396.375 29.688 396.781 30.0938 397.281 30.0938ZM403.625 29.1875C403.625 29.688 403.219 30.0938 402.719 30.0938C402.218 30.0938 401.812 29.688 401.812 29.1875C401.812 28.687 402.218 28.2812 402.719 28.2812C403.219 28.2812 403.625 28.687 403.625 29.1875ZM398.321 32.0663C398.159 31.7425 397.765 31.6113 397.441 31.7731C397.118 31.935 396.986 32.3287 397.148 32.6525C397.312 32.9802 397.632 33.4327 398.093 33.8103C398.559 34.1923 399.205 34.5252 400 34.5252C400.796 34.5252 401.441 34.1923 401.907 33.8103C402.368 33.4327 402.688 32.9802 402.852 32.6525C403.014 32.3287 402.883 31.935 402.559 31.7731C402.235 31.6113 401.841 31.7425 401.679 32.0663C401.592 32.242 401.383 32.5447 401.076 32.7965C400.774 33.0438 400.413 33.2144 400 33.2144C399.587 33.2144 399.226 33.0438 398.924 32.7965C398.617 32.5447 398.408 32.242 398.321 32.0663Z" fill="#354246"/>
<path d="M239.398 24.5L234.732 28.2323H231V33.8308H234.732L239.398 37.5632V24.5Z" stroke="#354246" stroke-width="1.5" stroke-linecap="round" stroke-linejoin="round"/>
<path d="M243.634 27.7285C244.509 28.6034 245 29.7899 245 31.027C245 32.2641 244.509 33.4505 243.634 34.3254" stroke="#354246" stroke-width="1.5" stroke-linecap="round" stroke-linejoin="round"/>
<path d="M271.041 25.7081C270.692 25.3477 270.278 25.0619 269.822 24.8668C269.365 24.6718 268.877 24.5714 268.383 24.5714C267.889 24.5714 267.4 24.6718 266.944 24.8668C266.488 25.0619 266.073 25.3477 265.724 25.7081L265 26.4556L264.275 25.7081C263.57 24.9805 262.614 24.5718 261.617 24.5718C260.62 24.5718 259.663 24.9805 258.958 25.7081C258.253 26.4356 257.857 27.4224 257.857 28.4513C257.857 29.4802 258.253 30.467 258.958 31.1946L259.683 31.9421L265 37.4286L270.317 31.9421L271.041 31.1946C271.39 30.8344 271.668 30.4067 271.857 29.936C272.046 29.4653 272.143 28.9608 272.143 28.4513C272.143 27.9418 272.046 27.4373 271.857 26.9666C271.668 26.4959 271.39 26.0683 271.041 25.7081V25.7081Z" fill="#354246"/>
<g filter="url(#filter1_d_36_3730)">
<path d="M298.429 33.1427C298.429 33.5216 298.278 33.885 298.01 34.1529C297.742 34.4208 297.379 34.5713 297 34.5713H288.429L285.571 37.4284V25.9999C285.571 25.621 285.722 25.2576 285.99 24.9897C286.258 24.7218 286.621 24.5713 287 24.5713H297C297.379 24.5713 297.742 24.7218 298.01 24.9897C298.278 25.2576 298.429 25.621 298.429 25.9999V33.1427Z" fill="#354246"/>
</g>
<rect x="313" y="30.25" width="12" height="1.5" rx="0.75" fill="#354246"/>
<rect x="0.5" y="0.5" width="549" height="59" rx="4.5" stroke="#7B61FF" stroke-dasharray="10 5"/>
<defs>
<filter id="filter0_d_36_3730" x="197" y="21" width="28" height="28" filterUnits="userSpaceOnUse" color-interpolation-filters="sRGB">
<feFlood flood-opacity="0" result="BackgroundImageFix"/>
<feColorMatrix in="SourceAlpha" type="matrix" values="0 0 0 0 0 0 0 0 0 0 0 0 0 0 0 0 0 0 127 0" result="hardAlpha"/>
<feOffset dy="4"/>
<feGaussianBlur stdDeviation="2"/>
<feComposite in2="hardAlpha" operator="out"/>
<feColorMatrix type="matrix" values="0 0 0 0 0 0 0 0 0 0 0 0 0 0 0 0 0 0 0.25 0"/>
<feBlend mode="normal" in2="BackgroundImageFix" result="effect1_dropShadow_36_3730"/>
<feBlend mode="normal" in="SourceGraphic" in2="effect1_dropShadow_36_3730" result="shape"/>
</filter>
<filter id="filter1_d_36_3730" x="278" y="21" width="28" height="28" filterUnits="userSpaceOnUse" color-interpolation-filters="sRGB">
<feFlood flood-opacity="0" result="BackgroundImageFix"/>
<feColorMatrix in="SourceAlpha" type="matrix" values="0 0 0 0 0 0 0 0 0 0 0 0 0 0 0 0 0 0 127 0" result="hardAlpha"/>
<feOffset dy="4"/>
<feGaussianBlur stdDeviation="2"/>
<feComposite in2="hardAlpha" operator="out"/>
<feColorMatrix type="matrix" values="0 0 0 0 0 0 0 0 0 0 0 0 0 0 0 0 0 0 0.25 0"/>
<feBlend mode="normal" in2="BackgroundImageFix" result="effect1_dropShadow_36_3730"/>
<feBlend mode="normal" in="SourceGraphic" in2="effect1_dropShadow_36_3730" result="shape"/>
</filter>
<clipPath id="clip0_36_3730">
<rect width="20" height="20" fill="white" transform="translate(174 21)"/>
</clipPath>
</defs>
</svg>
