<svg width="20" height="20" viewBox="0 0 20 20" fill="none" xmlns="http://www.w3.org/2000/svg">
<path d="M6.57141 3.57129H5.57141C4.46684 3.57129 3.57141 4.46672 3.57141 5.57129V6.57129C3.57141 7.67586 4.46684 8.57129 5.57141 8.57129H6.57141C7.67598 8.57129 8.57141 7.67586 8.57141 6.57129V5.57129C8.57141 4.46672 7.67598 3.57129 6.57141 3.57129Z" stroke="#354246" stroke-width="1.5" stroke-linecap="round" stroke-linejoin="round"/>
<path d="M14.4286 3.57129H13.4286C12.324 3.57129 11.4286 4.46672 11.4286 5.57129V6.57129C11.4286 7.67586 12.324 8.57129 13.4286 8.57129H14.4286C15.5332 8.57129 16.4286 7.67586 16.4286 6.57129V5.57129C16.4286 4.46672 15.5332 3.57129 14.4286 3.57129Z" stroke="#354246" stroke-width="1.5" stroke-linecap="round" stroke-linejoin="round"/>
<path d="M14.4286 11.4287H13.4286C12.324 11.4287 11.4286 12.3241 11.4286 13.4287V14.4287C11.4286 15.5333 12.324 16.4287 13.4286 16.4287H14.4286C15.5332 16.4287 16.4286 15.5333 16.4286 14.4287V13.4287C16.4286 12.3241 15.5332 11.4287 14.4286 11.4287Z" stroke="#354246" stroke-width="1.5" stroke-linecap="round" stroke-linejoin="round"/>
<path d="M6.57141 11.4287H5.57141C4.46684 11.4287 3.57141 12.3241 3.57141 13.4287V14.4287C3.57141 15.5333 4.46684 16.4287 5.57141 16.4287H6.57141C7.67598 16.4287 8.57141 15.5333 8.57141 14.4287V13.4287C8.57141 12.3241 7.67598 11.4287 6.57141 11.4287Z" stroke="#354246" stroke-width="1.5" stroke-linecap="round" stroke-linejoin="round"/>
</svg>
