<svg width="20" height="20" viewBox="0 0 20 20" fill="none" xmlns="http://www.w3.org/2000/svg">
<path d="M10 2.14307C9.43171 2.14307 8.88667 2.36883 8.48481 2.77069C8.08294 3.17256 7.85718 3.7176 7.85718 4.28592V10.0002C7.85718 10.5685 8.08294 11.1136 8.48481 11.5154C8.88667 11.9173 9.43171 12.1431 10 12.1431C10.5684 12.1431 11.1134 11.9173 11.5153 11.5154C11.9171 11.1136 12.1429 10.5685 12.1429 10.0002V4.28592C12.1429 3.7176 11.9171 3.17256 11.5153 2.77069C11.1134 2.36883 10.5684 2.14307 10 2.14307V2.14307Z" stroke="#7895AC" stroke-width="1.5" stroke-linecap="round" stroke-linejoin="round"/>
<path fill-rule="evenodd" clip-rule="evenodd" d="M5 7.82129C5.41421 7.82129 5.75 8.15708 5.75 8.57129V9.99986C5.75 11.127 6.19777 12.208 6.9948 13.0051C7.79183 13.8021 8.87283 14.2499 10 14.2499C11.1272 14.2499 12.2082 13.8021 13.0052 13.0051C13.8022 12.208 14.25 11.127 14.25 9.99986V8.57129C14.25 8.15708 14.5858 7.82129 15 7.82129C15.4142 7.82129 15.75 8.15708 15.75 8.57129V9.99986C15.75 11.5249 15.1442 12.9874 14.0659 14.0657C13.1659 14.9657 11.9982 15.5366 10.75 15.7008V17.1069H12.8571C13.2714 17.1069 13.6071 17.4427 13.6071 17.8569C13.6071 18.2711 13.2714 18.6069 12.8571 18.6069H10.0179C10.012 18.6071 10.006 18.6071 10 18.6071C9.99401 18.6071 9.98804 18.6071 9.98208 18.6069H7.14285C6.72864 18.6069 6.39285 18.2711 6.39285 17.8569C6.39285 17.4427 6.72864 17.1069 7.14285 17.1069H9.25V15.7008C8.00178 15.5366 6.83414 14.9657 5.93414 14.0657C4.8558 12.9874 4.25 11.5249 4.25 9.99986V8.57129C4.25 8.15708 4.58579 7.82129 5 7.82129Z" fill="#7895AC"/>
</svg>
